<svg xmlns="http://www.w3.org/2000/svg" viewBox="0 0 531.48 322.34"><defs><style>.cls-1,.cls-2{fill:#fff;}.cls-2{font-size:97.12px;font-family:MyriadPro-Regular, Myriad Pro;}</style></defs><g id="DTU"><path class="cls-1" d="M341.55,231s-21.1-26.55-51.4-32-78,0-78,0v14.79l9.19-1.85-9.19,9.87v20.43s23.83-29.62,58.55-28.6,59.92,24.51,59.92,24.51S341.55,239.19,341.55,231Z" transform="translate(-20.71 -120.55)"/><path class="cls-1" d="M150.57,212.64V199.36H76.36s-31,4.09-55.15,30.3c0,0-3.74,12.94,9.19,12.6,0,0,28.6-25.2,39.83-25.88s48-11.9,80.34,25.88V222.17l-15.31-9.87Z" transform="translate(-20.71 -120.55)"/><path class="cls-1" d="M157.38,228.3v17h14.3v61.62s6.47,7.49,16.34,0V245.32h16.34v-17Z" transform="translate(-20.71 -120.55)"/><path class="cls-1" d="M157.38,198.34V212h47V198.34h-9.7s6.55-3.57,6.13-8.85-6-8.94-6-8.94,1.87,7.15-2.72,8.85-4.77,8.86-5.54,9l-5.19-.43s-.59-5.11,5.28-9.36,4.51-7.32.08-16.77c0,0-4.17-5.61,2.47-12.93,0,0-8.08-.17-10.47,7.74s3.07,15.23,3.07,15.23,2.81,6.39-2.13,10.9c0,0,2.72-8.17-7-13.45,0,0-10.72-3.83-6.38-16,0,0-10.72,5.87-5.7,17.62,0,0,6.64,16.68,12.08,16.76S157.38,198.34,157.38,198.34Z" transform="translate(-20.71 -120.55)"/><path class="cls-1" d="M174.66,174.17s-.94-9.53,3.49-13,8-8.26,6.13-14.55c0,0-4.6,11.74-8.85,11.83C175.43,158.43,166,168.47,174.66,174.17Z" transform="translate(-20.71 -120.55)"/><path class="cls-1" d="M180.87,120.55s-8.25,3.41-7.49,14.39c0,0,2.17,6.63,3.72,8.17s2.33,8.85-3,12.59c0,0,10.3-4.42,9.11-13.61a10.38,10.38,0,0,1-4.26-10S178,127.62,180.87,120.55Z" transform="translate(-20.71 -120.55)"/><text class="cls-2" transform="translate(43.06 166.27) scale(0.92 1)">D</text><path class="cls-1" d="M178.24,215.89h-3.35v-2.63h10.28v2.63h-3.41V225h-3.52Z" transform="translate(-20.71 -120.55)"/><path class="cls-1" d="M160.28,213.42a31.28,31.28,0,0,1,4.18-.25,9.89,9.89,0,0,1,5.4,1.16,5,5,0,0,1,2.38,4.49,5.56,5.56,0,0,1-2.29,4.82,11.1,11.1,0,0,1-6.17,1.44,24.74,24.74,0,0,1-3.5-.2Zm3.51,9.19a5.87,5.87,0,0,0,.75,0c2.28,0,4-1.08,4-3.72,0-2.28-1.53-3.36-3.64-3.36a5.54,5.54,0,0,0-1.08.08Z" transform="translate(-20.71 -120.55)"/><path class="cls-1" d="M160.28,213.42a31.28,31.28,0,0,1,4.18-.25,9.89,9.89,0,0,1,5.4,1.16,5,5,0,0,1,2.38,4.49,5.56,5.56,0,0,1-2.29,4.82,11.1,11.1,0,0,1-6.17,1.44,24.74,24.74,0,0,1-3.5-.2Zm3.51,9.19a5.87,5.87,0,0,0,.75,0c2.28,0,4-1.08,4-3.72,0-2.28-1.53-3.36-3.64-3.36a5.54,5.54,0,0,0-1.08.08Z" transform="translate(-20.71 -120.55)"/><path class="cls-1" d="M193.15,213.26v6.63c0,1.77.68,2.76,2.08,2.76s2.08-.9,2.08-2.76v-6.63h3.52v6.45c0,3.61-2,5.43-5.71,5.43s-5.49-1.76-5.49-5.51v-6.37Z" transform="translate(-20.71 -120.55)"/><text class="cls-2" transform="translate(218.55 168.45) scale(0.92 1)">U</text></g><g id="SIAM"><path class="cls-1" d="M496.53,417.32V334.09s1.15-13.79-11.62-14.94l-32.42.25s-7.28-.38-7,7.66c0,0,.13-9.57-10.6-7.78L403,319a4,4,0,0,0-4,3.17c.09-1.17-.41-3.24-5.15-3.42H374.11l-.51,87.32s1.4,10.46-10.22,10.08L329,416V335.11S332,317.49,317.55,320c0,0-79.27-1.4-79.66-1.27s-1,23.61-1,23.61l65.75,2.3s10.34,11.87,0,22.21H240.7S227.43,367,227,379.66V408s-2.42,8.94-13.66,8.68c0,0-16.34,2-17.1-8.81V318.19H171l.51,89s1.28,9.58-11.87,9.58H145.47V383s1.4-16.34-7.92-16.09-68.81-.51-68.81-.51-10.34-11.1,0-21.44l4.73-.39H145V320l-89.62-1.78S42.83,317,41.55,326.17s0,57.19,0,57.19-1.27,12.77,16.34,10.21h56.43s16.85,13.54,0,23H41v24.77H394.15s2.55,1.28,3.32-6.89,0-79.66,0-79.66,14-20.17,24.76,0v84.76a16.52,16.52,0,0,0,11,3.32c6.39-.51,7.66,1.28,12.77-2.81V353.49s3.57-10.21,12.76-8.43a13.8,13.8,0,0,1,10.47,8.68v76.6s1,10.72,10.73,10.21h72.25V416.81Zm-196.44-1.2H254.44c-1.2-1.49-4.18-.3-4.78-10.64s4.78-10.64,4.78-10.64,35.51,1.29,43.2.09,9,9.85,9,9.85C305.47,414.93,300.09,416.12,300.09,416.12Z" transform="translate(-20.71 -120.55)"/></g></svg>